# Blender v2.77 (sub 0) OBJ File: 'model_new.blend'
# www.blender.org
g Plate
v -0.125000 0.125000 -0.500000
v -0.125000 -0.125000 -0.500000
v -0.312498 -0.312500 -0.500000
v -0.312498 0.312500 -0.500000
v -0.312498 -0.312500 -0.375000
v 0.312498 -0.312500 -0.500000
v 0.312498 -0.312500 -0.375000
v 0.125000 0.125000 -0.375000
v 0.125000 -0.125000 -0.375000
v 0.312498 0.312500 -0.375000
v 0.312498 0.312500 -0.500000
v -0.312498 0.312500 -0.375000
v 0.125000 0.125000 -0.500000
v 0.125000 -0.125000 -0.500000
v -0.125000 -0.125000 -0.375000
v -0.125000 0.125000 -0.375000
vt 0.4375 0.8125
vt 0.4375 0.5625
vt 0.6250 0.3750
vt 0.6250 1.0000
vt 0.6250 0.3750
vt 0.7500 0.3750
vt 0.7500 1.0000
vt 0.6250 1.0000
vt 0.1875 0.5625
vt 0.1875 0.8125
vt -0.0000 1.0000
vt 0.0000 0.3750
vt 0.7500 1.0000
vt 0.6250 1.0000
vt 0.6250 0.3750
vt 0.7500 0.3750
vt 0.6250 0.3750
vt 0.7500 0.3750
vt 0.7500 1.0000
vt 0.6250 1.0000
vt 0.6250 0.3750
vt 0.7500 0.3750
vt 0.7500 1.0000
vt 0.6250 1.0000
vt 0.7500 0.5625
vt 0.8750 0.5625
vt 0.8750 0.8125
vt 0.7500 0.8125
vt 0.4375 0.8125
vt 0.4375 0.5625
vt 0.7500 0.5625
vt 0.8750 0.5625
vt 0.8750 0.8125
vt 0.7500 0.8125
vt 0.0000 1.0000
vt 0.0000 0.3750
vt 0.1875 0.5625
vt 0.1875 0.8125
vt 0.7500 0.5625
vt 0.8750 0.5625
vt 0.8750 0.8125
vt 0.7500 0.8125
vt 0.7500 0.5625
vt 0.8750 0.5625
vt 0.8750 0.8125
vt 0.7500 0.8125
vn 0.0000 0.0000 -1.0000
vn 0.0000 -1.0000 -0.0000
vn 0.0000 -0.0000 1.0000
vn 1.0000 0.0000 0.0000
vn 0.0000 1.0000 0.0000
vn -1.0000 0.0000 0.0000
s 1
f 1/1/1 2/2/1 3/3/1 4/4/1
f 5/5/2 3/6/2 6/7/2 7/8/2
f 8/9/3 9/10/3 7/11/3 10/12/3
f 11/13/4 10/14/4 7/15/4 6/16/4
f 10/17/5 11/18/5 4/19/5 12/20/5
f 12/21/6 4/22/6 3/23/6 5/24/6
f 8/25/6 13/26/6 14/27/6 9/28/6
f 9/10/3 15/29/3 5/24/3 7/11/3
f 15/29/3 16/30/3 12/21/3 5/24/3
f 16/30/3 8/9/3 10/12/3 12/21/3
f 9/31/5 14/32/5 2/33/5 15/34/5
f 11/35/1 6/36/1 14/37/1 13/38/1
f 2/2/1 14/37/1 6/36/1 3/3/1
f 4/4/1 11/35/1 13/38/1 1/1/1
f 15/39/4 2/40/4 1/41/4 16/42/4
f 16/43/2 1/44/2 13/45/2 8/46/2
g Insert
v 0.125000 -0.125000 -0.000000
v 0.125000 0.125000 0.000000
v 0.125000 0.125000 0.187500
v 0.125000 -0.125000 0.187500
v -0.125000 -0.125000 0.187500
v -0.125000 -0.125000 -0.000000
v -0.125000 0.125000 0.187500
v -0.125000 0.125000 0.000000
vt 0.6250 0.1250
vt 0.6250 0.3750
vt 0.4375 0.3750
vt 0.4375 0.1250
vt 0.4375 0.3750
vt 0.4375 0.1250
vt 0.6250 0.1250
vt 0.6250 0.3750
vt 0.4375 0.3750
vt 0.4375 0.1250
vt 0.6250 0.1250
vt 0.6250 0.3750
vt 0.6250 0.1250
vt 0.6250 0.3750
vt 0.4375 0.3750
vt 0.4375 0.1250
vt 0.4375 0.3750
vt 0.1875 0.3750
vt 0.1875 0.1250
vt 0.4375 0.1250
vt 0.1875 0.1250
vt 0.1875 0.3750
vn 1.0000 -0.0000 0.0000
vn 0.0000 -1.0000 -0.0000
vn -1.0000 -0.0000 0.0000
vn 0.0000 1.0000 0.0000
vn 0.0000 0.0000 -1.0000
vn 0.0000 -0.0000 1.0000
s 1
f 17/47/7 18/48/7 19/49/7 20/50/7
f 20/51/8 21/52/8 22/53/8 17/54/8
f 21/55/9 23/56/9 24/57/9 22/58/9
f 18/59/10 24/60/10 23/61/10 19/62/10
f 18/63/11 17/64/11 22/65/11 24/66/11
f 23/67/12 21/52/12 20/51/12 19/68/12
